<?xml version="1.0" encoding="utf-8"?>
<!-- Generator: Adobe Illustrator 16.0.0, SVG Export Plug-In . SVG Version: 6.00 Build 0)  -->
<!DOCTYPE svg PUBLIC "-//W3C//DTD SVG 1.1//EN" "http://www.w3.org/Graphics/SVG/1.1/DTD/svg11.dtd">
<svg version="1.1" id="Слой_4" xmlns="http://www.w3.org/2000/svg" xmlns:xlink="http://www.w3.org/1999/xlink" x="0px" y="0px"
	 width="586.074px" height="658.564px" viewBox="0 0 586.074 658.564" enable-background="new 0 0 586.074 658.564"
	 xml:space="preserve">
<linearGradient id="SVGID_1_" gradientUnits="userSpaceOnUse" x1="107.3181" y1="108.2859" x2="465.3181" y2="534.2859">
	<stop  offset="0" style="stop-color:#00C1FF"/>
	<stop  offset="1" style="stop-color:#0084FF"/>
</linearGradient>
<path fill="url(#SVGID_1_)" d="M422.575,414.109c0,31.696-25.693,57.389-57.389,57.389H198.949
	c-24.95,0-45.179-20.227-45.179-45.178c0-24.952,20.229-45.179,45.179-45.179c0.205,0,0.409,0.005,0.613,0.008
	c3.547-21.412,22.148-37.74,44.565-37.74c2.433,0,4.822,0.195,7.15,0.565c10.791-22.656,33.897-38.315,60.663-38.315
	c32.012,0,58.791,22.402,65.522,52.382C403.259,363.664,422.573,386.629,422.575,414.109z M332.89,294.586
	c23.423,4.77,47.931-18.472,54.738-51.91c6.808-33.438-6.662-64.411-30.086-69.18c-23.423-4.769-47.931,18.473-54.738,51.91
	C295.996,258.844,309.466,289.817,332.89,294.586z M254.064,294.585c23.424-4.769,36.894-35.741,30.086-69.18
	c-6.808-33.438-31.315-56.679-54.739-51.91c-23.423,4.769-36.893,35.742-30.085,69.18
	C206.133,276.113,230.64,299.354,254.064,294.585z M190.568,350.252c18.032-8.563,22.742-36.371,10.52-62.113
	s-36.749-39.669-54.782-31.107c-18.032,8.563-22.742,36.371-10.52,62.113C148.009,344.886,172.535,358.814,190.568,350.252z
	 M434.957,255.829c-18.935-6.324-41.603,10.46-50.63,37.489c-9.028,27.029-0.997,54.067,17.938,60.392
	c18.934,6.324,41.602-10.461,50.63-37.489C461.922,289.191,453.891,262.153,434.957,255.829z M586.074,464.459
	c0.003,21.017-11.21,40.438-29.408,50.954L322.504,650.677c-18.198,10.516-40.629,10.518-58.838,0.007L29.465,515.497
	c-18.202-10.511-29.419-29.93-29.424-50.946L0,194.102c-0.005-21.019,11.208-40.438,29.406-50.956L263.564,7.886
	c18.206-10.512,40.635-10.515,58.838-0.01l234.205,135.188c18.203,10.51,29.42,29.928,29.426,50.946L586.074,464.459z
	 M554.662,449.967l-0.037-241.457c-0.004-18.765-10.021-36.096-26.271-45.483L319.254,42.333
	c-16.249-9.381-36.278-9.378-52.528,0.009L57.665,163.102c-16.243,9.391-26.256,26.725-26.252,45.49L31.45,450.05
	c0.002,18.765,10.021,36.097,26.268,45.483l209.096,120.696c16.255,9.383,36.285,9.38,52.53-0.01l209.063-120.763
	C544.654,486.067,554.666,468.732,554.662,449.967z"/>
</svg>
